<?xml version="1.0" encoding="utf-8"?>
<svg id="master-artboard" viewBox="0 0 1400 1400" version="1.1" xmlns="http://www.w3.org/2000/svg" x="0px" y="0px" width="1400px" height="1400px" style="enable-background:new 0 0 1400 1400;">
<metadata><!--?xpacket begin="﻿" id="W5M0MpCehiHzreSzNTczkc9d"?-->

                                                                                                    
                                                                                                    
                                                                                                    
                                                                                                    
                                                                                                    
                                                                                                    
                                                                                                    
                                                                                                    
                                                                                                    
                                                                                                    
                                                                                                    
                                                                                                    
                                                                                                    
                                                                                                    
                                                                                                    
                                                                                                    
                                                                                                    
                                                                                                    
                                                                                                    
                                                                                                    
                           
<!--?xpacket end="w"?-->
	</metadata>
<g transform="matrix(1, 0, 0, 1, -5.684341886080802e-14, 0)">
			<path d="M 1168 769.3469848632812 L 706.9979858398438 769.3469848632812 L 706.9979858398438 797.0079956054688 L 978.989013671875 797.0079956054688 L 978.989013671875 1199.9229736328125 L 1044.4510498046875 1199.9229736328125 L 1044.4510498046875 797.0079956054688 L 1062.8909912109375 797.0079956054688 L 1062.8909912109375 1120.6309814453125 L 1115.4449462890625 1120.6309814453125 L 1115.4449462890625 797.0079956054688 L 1168 797.0079956054688 Z" style="fill:#F9A783;"/>
		</g><path style="fill:#FCB22F;" d="M898.96,1225.418c-19.906,3.037-40.109,4.13-60.227,3.257c-9.026-0.392-18.42-1.299-26.106-6.048&#10;&#9;&#9;&#9;&#9;c-6.116-3.779-10.793-9.795-17.401-12.626c-11.602-4.97-24.59,1.287-36.246,6.128c-32.819,13.633-70.073,16.333-104.515,7.574&#10;&#9;&#9;&#9;&#9;c-12.49-3.176-24.963-7.852-37.824-7.034c-12.952,0.823-25.068,7.183-38.02,8.012c-8.682,0.556-17.303-1.401-25.817-3.188&#10;&#9;&#9;&#9;&#9;c-71.033-14.911-144.375-18.769-216.58-11.392c-18.167,1.856-36.488,4.419-54.611,2.172c-9.51-1.179-19.181-3.671-28.534-1.582&#10;&#9;&#9;&#9;&#9;c-9.352,2.089-18.181,10.952-15.972,20.277c2.371,10.009,14.635,13.433,24.813,14.917&#10;&#9;&#9;&#9;&#9;c128.142,18.693,258.785,20.168,387.317,4.373c19.112-2.349,38.264-5.082,57.518-4.8c22.369,0.328,45.185,4.684,66.828-0.978&#10;&#9;&#9;&#9;&#9;c7.373-1.929,14.45-4.994,21.952-6.338c10.341-1.852,20.957-0.35,31.345,1.225c50.067,7.589,101.607,16.759,150.792,4.712&#10;&#9;&#9;&#9;&#9;c4.196-1.028,8.786-2.532,10.879-6.311c4.556-8.225-6.496-16.445-15.735-18.191&#10;&#9;&#9;&#9;&#9;C948.412,1214.965,923.513,1221.672,898.96,1225.418z" transform="matrix(1, 0, 0, 1, -8.526512829121202e-14, 0)"/><path style="fill:#5A453C;" d="M714.823,1171.356c0,0-16.659,28.007-33.077,30.421c-7.464,1.098-15.826,1.447-22.727,1.501&#10;&#9;&#9;&#9;&#9;c-8.082,0.064-14.69,6.447-14.971,14.525l-0.335,9.623c-0.063,1.817,1.392,3.324,3.21,3.324h69.12&#10;&#9;&#9;&#9;&#9;c1.537,0,3.011-0.61,4.097-1.697l0,0c2.263-2.263,5.932-2.263,8.195,0l0.483,0.483c1.087,1.087,2.561,1.697,4.097,1.697h31.1&#10;&#9;&#9;&#9;&#9;c2.055,0,3.743-1.625,3.821-3.678l1.792-47.155l-14.486-15.321l-26.558-2.656L714.823,1171.356z" transform="matrix(1, 0, 0, 1, -8.526512829121202e-14, 0)"/><path style="fill:#5A453C;" d="M859.823,1171.356c0,0-16.659,28.007-33.077,30.421c-7.464,1.098-15.826,1.447-22.727,1.501&#10;&#9;&#9;&#9;&#9;c-8.082,0.064-14.69,6.447-14.971,14.525l-0.335,9.623c-0.063,1.817,1.392,3.324,3.21,3.324h69.12&#10;&#9;&#9;&#9;&#9;c1.537,0,3.011-0.61,4.097-1.697l0,0c2.263-2.263,5.932-2.263,8.195,0l0.483,0.483c1.087,1.087,2.561,1.697,4.097,1.697h31.1&#10;&#9;&#9;&#9;&#9;c2.055,0,3.743-1.625,3.821-3.678l1.792-47.155l-14.486-15.321l-26.558-2.656L859.823,1171.356z" transform="matrix(1, 0, 0, 1, -8.526512829121202e-14, 0)"/><path style="fill:#F26D7D;" d="M584.351,531.447c0.329-1.238-0.262-2.515-0.838-3.66c-7.664-15.234-15.328-30.468-22.992-45.703&#10;&#9;&#9;&#9;&#9;c-7.83,4.176-16.68,6.422-25.554,6.485c5.89,21.3,14.941,41.723,26.764,60.394c6.771-4.951,13.542-9.903,20.313-14.854&#10;&#9;&#9;&#9;&#9;C583.012,533.402,584.043,532.605,584.351,531.447z" transform="matrix(1, 0, 0, 1, -8.526512829121202e-14, 0)"/><path style="fill:#F26D7D;" d="M496.13,480.055c2.554,6.006,9.338,9.324,15.855,9.673c6.517,0.349,12.893-1.719,19.092-3.761&#10;&#9;&#9;&#9;&#9;c3.223-1.062,6.592-2.215,8.897-4.706c4.12-4.452,3.419-11.493,1.538-17.26c-1.88-5.767-4.714-11.552-4.011-17.578&#10;&#9;&#9;&#9;&#9;c-15.324-1.102-30.648-2.204-45.972-3.305c-6.028-0.433-13.361-0.222-16.402,5.001c-1.689,2.901-1.388,6.705,0.304,9.605&#10;&#9;&#9;&#9;&#9;s4.605,4.948,7.753,6.113c-2.433,3.827-2.145,9.187,0.684,12.73C486.696,480.112,491.859,481.58,496.13,480.055z" transform="matrix(1, 0, 0, 1, -8.526512829121202e-14, 0)"/><path style="fill:#FFEDD2;" d="M350.21,432.565c-12.149-1.918-25.173-0.142-36.286-5.413c-5.57-2.642-10.202-6.87-15.249-10.41&#10;&#9;&#9;&#9;&#9;c-5.047-3.54-10.947-6.504-17.093-6.015c-1.232-1.54-1.108-3.997,0.272-5.406c1.381-1.409,3.835-1.582,5.4-0.381&#10;&#9;&#9;&#9;&#9;c0.175-35.549,0.35-71.098,0.525-106.647c3.958,8.024,3.874,17.365,3.706,26.31c-0.351,18.672-0.701,37.344-1.052,56.016&#10;&#9;&#9;&#9;&#9;c-0.075,4.017-0.141,8.108,0.995,11.962c1.137,3.854,3.687,7.503,7.437,8.945c3.174-7.559,4.749-15.786,4.591-23.983&#10;&#9;&#9;&#9;&#9;c4.619,1.045,5.292,7.32,4.623,12.009c-0.669,4.689-1.031,10.687,3.168,12.878c3.289,1.716,7.527-0.425,9.411-3.621&#10;&#9;&#9;&#9;&#9;s2.041-7.084,2.178-10.791c0.78-21.135,2.514-42.234,5.195-63.213c0.308-2.412,1.036-5.317,3.378-5.969&#10;&#9;&#9;&#9;&#9;c2.322-0.646,4.599,1.665,4.924,4.053c0.325,2.388-0.667,4.73-1.51,6.988c-3.717,9.946-4.873,20.837-3.328,31.342&#10;&#9;&#9;&#9;&#9;c1.29-0.394,2.58-0.788,3.871-1.182c3.205,15.729,6.478,31.445,9.818,47.146c0.767,3.604,1.764,7.559,4.802,9.642&#10;&#9;&#9;&#9;&#9;c6.975,4.783,16.68-4.502,24.542-1.384c2.112-3.92,4.312-7.948,7.772-10.751s8.538-4.1,12.433-1.94&#10;&#9;&#9;&#9;&#9;c4.289,2.379,5.646,7.792,6.585,12.606c0.953,4.882,1.905,9.764,2.858,14.645c0.471,2.412,0.936,4.942,0.211,7.289&#10;&#9;&#9;&#9;&#9;c-0.972,3.146-3.982,5.348-7.177,6.146c-3.195,0.798-6.564,0.401-9.794-0.238C374.748,440.691,362.965,434.578,350.21,432.565z" transform="matrix(1, 0, 0, 1, -8.526512829121202e-14, 0)"/><g transform="matrix(1, 0, 0, 1, -8.526512829121202e-14, 0)">
				<path d="M 787.6729736328125 407.4630126953125 L 717.6010131835938 407.4630126953125 L 717.6010131835938 656.4039916992188 L 778.4530029296875 656.4039916992188 L 778.4530029296875 837.1170043945312 L 890.93798828125 837.1170043945312 L 890.93798828125 409.3070068359375 L 787.6729736328125 409.3070068359375 Z" style="fill:#F9A783;"/>
			</g><path d="M 1090.552001953125 383.9519958496094 L 995.5850219726562 383.9519958496094 L 995.5850219726562 419.9100036621094 L 903.385009765625 419.9100036621094 L 903.385009765625 963.8930053710938 L 1023.2449951171875 963.8930053710938 L 1023.2449951171875 823.7479858398438 L 1090.552001953125 823.7479858398438 Z" style="fill:#F9A783;" transform="matrix(1, 0, 0, 1, -8.526512829121202e-14, 0)"/><g transform="matrix(1, 0, 0, 1, -8.526512829121202e-14, 0)">
				<path d="M 625.091003 138.903 H 1091.567993 V 425.026993 H 625.091003 V 138.903 Z" style="fill:#FFEDD2;"/>
			</g><g transform="matrix(1, 0, 0, 1, -8.526512829121202e-14, 0)">
					<g>
						<path d="M 640.224976 155.518997 H 778.848969 V 405.041992 H 640.224976 V 155.518997 Z" style="fill:#E4B997;"/>
					</g>
					<g>
						<path d="M 673.620996 270.199005 A 10.712 10.712 0 0 1 662.908997 280.911005 A 10.712 10.712 0 0 1 652.196997 270.199005 A 10.712 10.712 0 0 1 662.908997 259.487005 A 10.712 10.712 0 0 1 673.620996 270.199005 Z" style="fill:#5A453C;"/>
					</g>
				</g><g transform="matrix(1, 0, 0, 1, -8.526512829121202e-14, 0)">
						<path d="M 790.301025 155.518997 H 928.925018 V 405.041992 H 790.301025 V 155.518997 Z" style="fill:#E4B997;"/>
					</g><path d="M 823.696985 270.199005 A 10.712 10.712 0 0 1 812.984985 280.911005 A 10.712 10.712 0 0 1 802.272985 270.199005 A 10.712 10.712 0 0 1 812.984985 259.487005 A 10.712 10.712 0 0 1 823.696985 270.199005 Z" style="fill:#5A453C;" transform="matrix(1, 0, 0, 1, -8.526512829121202e-14, 0)"/><g transform="matrix(1, 0, 0, 1, -8.526512829121202e-14, 0)">
						<path d="M 940.375977 155.518997 H 1078.999969 V 405.041992 H 940.375977 V 155.518997 Z" style="fill:#E4B997;"/>
					</g><path d="M 973.771997 270.199005 A 10.712 10.712 0 0 1 963.059998 280.911005 A 10.712 10.712 0 0 1 952.347998 270.199005 A 10.712 10.712 0 0 1 963.059998 259.487005 A 10.712 10.712 0 0 1 973.771997 270.199005 Z" style="fill:#5A453C;" transform="matrix(1, 0, 0, 1, -8.526512829121202e-14, 0)"/><g transform="matrix(1, 0, 0, 1, -8.526512829121202e-14, 0)">
				<g>
					<path style="fill:#5A453C;" d="M393.901,456.325L266.588,417.77c-7.919-2.398-13.421-9.586-13.669-17.857l-0.542-18.085&#10;&#9;&#9;&#9;&#9;&#9;&#9;l175.811,51.128l-13.706,17.016C409.558,456.087,401.415,458.6,393.901,456.325z"/>
				</g>
				<g>
					<path d="M 417 441.9230041503906 L 442.4960021972656 449.114013671875 L 445.6629943847656 437.885986328125 L 426.7720031738281 432.5580139160156 Z" style="fill:#EF4625;"/>
				</g>
			</g><path style="fill:#5A453C;" d="M539.94,482.62c-26.961-0.987-59.228-18.265-98.785-29.944l4.197-14.878l97.253,27.432&#10;&#9;&#9;&#9;&#9;&#9;c4.67,1.317,7.388,6.171,6.071,10.841l-0.042,0.149C547.541,480.091,543.959,482.767,539.94,482.62z" transform="matrix(1, 0, 0, 1, -8.526512829121202e-14, 0)"/><path style="fill:#FFEDD2;" d="M810.947,482.145c-65.524,86.638-187.2,101.789-222.055,27.666l-48.779,29.85&#10;&#9;&#9;&#9;&#9;c0,0,68.437,112.847,193.661,54.604L810.947,482.145z" transform="matrix(1, 0, 0, 1, -8.526512829121202e-14, 0)"/><path style="fill:#FFFFFF;" d="M686.45,822.144c0,0,12.628,96.83,11.964,119.4c-0.665,22.569,9.305,61.884,9.305,61.884&#10;&#9;&#9;&#9;&#9;l-9.139,186.323l79.42,2.672c9.985-61.234,4.807-134.667-0.062-196c-4.181-52.665,2.558-97.393-1.762-148.798L686.45,822.144z" transform="matrix(1, 0, 0, 1, -8.526512829121202e-14, 0)"/><path style="fill:#FFEDD2;" d="M776.177,847.625l-89.726-25.482c0,0,1.799,13.799,4.004,32.191l86.999,52.905&#10;&#9;&#9;&#9;&#9;C777.862,887.814,777.91,868.257,776.177,847.625z" transform="matrix(1, 0, 0, 1, -8.526512829121202e-14, 0)"/><path style="fill:#FFFFFF;" d="M776.819,822.144c0,0,28.389,96.83,31.054,119.4c2.665,22.569,19.496,61.884,19.496,61.884&#10;&#9;&#9;&#9;&#9;l17.999,186.323l81.632,3.672c1.733-61.234-9.212-135.667-23.766-197c-12.497-52.665-11.839-97.393-24.299-148.798&#10;&#9;&#9;&#9;&#9;L776.819,822.144z" transform="matrix(1, 0, 0, 1, -8.526512829121202e-14, 0)"/><path style="fill:#FFEDD2;" d="M878.936,847.625l-102.117-25.482c0,0,7.265,24.781,14.79,52.19l100.456,55.315&#10;&#9;&#9;&#9;&#9;C888.734,902.698,885.86,876.192,878.936,847.625z" transform="matrix(1, 0, 0, 1, -8.526512829121202e-14, 0)"/><path style="fill:#E4B997;" d="M889.621,1174.637c9.408-54.111-3.512-114.642-15.621-168.214S850.498,904.3,849.357,849.389&#10;&#9;&#9;&#9;&#9;C845.818,958.893,896.226,1065.275,889.621,1174.637z" transform="matrix(1, 0, 0, 1, -8.526512829121202e-14, 0)"/><path style="fill:#FFEDD2;" d="M836.428,474.137c0,0-59.242,7.181-130.528,152.29c-15.174,30.888-25.674,63.863-31.191,97.831&#10;&#9;&#9;&#9;&#9;c-5.178,31.877-10.281,71.507-7.916,92.79c0,0,2.912,34.218,161.627,45.139c0,0,78.379,5.719,96.581-19.763&#10;&#9;&#9;&#9;&#9;c-61.959-120.776-66.803-237.751-39.065-356.638L836.428,474.137z" transform="matrix(1, 0, 0, 1, -8.526512829121202e-14, 0)"/><path style="fill:#FFFFFF;" d="M885.936,485.785l-49.507-11.649c0,0-0.357,0.046-1.025,0.187&#10;&#9;&#9;&#9;&#9;c-84.467,88.126-125.031,210.36-113.855,372.794c23.796,6.114,57.914,11.7,106.872,15.069c0,0,78.379,5.719,96.581-19.763&#10;&#9;&#9;&#9;&#9;C863.042,721.647,858.198,604.672,885.936,485.785z" transform="matrix(1, 0, 0, 1, -8.526512829121202e-14, 0)"/><path style="fill:#E4B997;" d="M885.913,485.78c-11.602-2.732-32.341-16.435-40.433-0.634&#10;&#9;&#9;&#9;&#9;c-5.188,10.131-2.124,20.378,0.458,30.575c3.147,12.428,5.844,24.97,8.086,37.593c8.024,45.18,6.659,89.604,8.192,135.188&#10;&#9;&#9;&#9;&#9;c1.308,38.635,2.616,77.271,3.924,115.906c0.545,16.087,8.069,58.903-18.14,58.903c29.642,1.079,63.949-2.617,77-20.888&#10;&#9;&#9;&#9;&#9;C878,717.423,864,603.423,885.913,485.78z" transform="matrix(1, 0, 0, 1, -8.526512829121202e-14, 0)"/><path style="fill:#F26D7D;" d="M1051.191,643.081c0,0,20.37,22.766,1.917,36.665c-16.469,12.405-18.239,22.52-14,35.795&#10;&#9;&#9;&#9;&#9;c1.57,4.916,8.207,5.971,11.073,1.679c1.717-2.571,2.846-6.89,2.381-14.061c-0.105-1.622,0.29-3.236,1.076-4.659&#10;&#9;&#9;&#9;&#9;c2.716-4.922,9.664-14.054,18.881-0.781c8.327,11.99-3.946,22.129-12.209,27.199c-3.518,2.159-3,7.422,0.874,8.846&#10;&#9;&#9;&#9;&#9;c5,1.836,12.347,1.548,21.407-7.418c3.194-3.161,7.181-5.363,11.553-6.402c9.983-2.372,26.699-10.202,19.115-35.885&#10;&#9;&#9;&#9;&#9;c-10.544-35.707-28.757-58.473-28.757-58.473L1051.191,643.081z" transform="matrix(1, 0, 0, 1, -8.526512829121202e-14, 0)"/><g transform="matrix(1, 0, 0, 1, -8.526512829121202e-14, 0)">
				<path style="fill:#F26D7D;" d="M811.4,487.1c4.486-23.128,9.119-46.675,20.39-67.363c11.271-20.688,30.445-38.442,53.739-41.966&#10;&#9;&#9;&#9;&#9;&#9;c-11.439,33.258-15.839,68.918-12.827,103.959C852.161,481.672,831.617,483.471,811.4,487.1z"/>
			</g><path style="fill:#D4546B;" d="M831.789,419.737c-4.958,9.1-8.629,18.753-11.571,28.68c16.695,4.388,34.096,6.298,51.604,7.533&#10;&#9;&#9;&#9;&#9;&#9;c0.447-26.562,5.065-53.056,13.706-78.179C862.235,381.295,843.06,399.049,831.789,419.737z" transform="matrix(1, 0, 0, 1, -8.526512829121202e-14, 0)"/><path style="fill:#FFFFFF;" d="M892.334,358.423c-26.055-9.199-61.02-19.17-84.333-34&#10;&#9;&#9;&#9;&#9;&#9;c4.765-51.529,13.149-97.719,17.915-149.248c49.977-7.247,102.546,5.241,143.925,34.189c1.588,1.111,3.247,2.356,3.901,4.181&#10;&#9;&#9;&#9;&#9;&#9;c1.091,3.042-0.999,6.219-2.954,8.792C937.093,266.677,916.545,308.271,892.334,358.423z" transform="matrix(1, 0, 0, 1, -8.526512829121202e-14, 0)"/><path style="fill:#FFEDD2;" d="M808.713,317.093c-0.243,2.435-0.486,4.871-0.713,7.33c23.313,14.83,58.279,24.801,84.333,34&#10;&#9;&#9;&#9;&#9;&#9;c4.666-9.666,9.196-19.011,13.71-28.121C874.378,320.85,841.735,315.766,808.713,317.093z" transform="matrix(1, 0, 0, 1, -8.526512829121202e-14, 0)"/><path style="fill:#F26D7D;" d="M886.629,354.867c-5.43-7.425-15.64-9.142-24.803-9.956c-12.799-1.136-25.651-1.67-38.5-1.599&#10;&#9;&#9;&#9;&#9;&#9;c-6.671,0.036-13.918,0.445-18.992,4.777c-4.487,3.831-6.259,9.896-7.595,15.643c-6.453,27.778-7.843,56.722-4.107,84.994&#10;&#9;&#9;&#9;&#9;&#9;c0.051,0.008,0.101,0.017,0.152,0.025c9.87,1.62,20.024,0.494,29.314-3.211c10.633-4.241,20.804-9.521,30.086-16.21&#10;&#9;&#9;&#9;&#9;&#9;c17.387-12.529,31.513-30.373,36.749-51.154C890.904,370.35,891.393,361.382,886.629,354.867z" transform="matrix(1, 0, 0, 1, -8.526512829121202e-14, 0)"/><path style="fill:#D4546B;" d="M888.932,378.176c1.972-7.826,2.462-16.794-2.303-23.309c-5.43-7.425-15.64-9.142-24.803-9.956&#10;&#9;&#9;&#9;&#9;&#9;c-12.799-1.136-25.651-1.67-38.5-1.599c-6.671,0.036-13.918,0.445-18.992,4.777c-3.653,3.119-5.506,7.717-6.789,12.419&#10;&#9;&#9;&#9;&#9;&#9;l91.326,17.886C888.889,378.322,888.913,378.25,888.932,378.176z" transform="matrix(1, 0, 0, 1, -8.526512829121202e-14, 0)"/><path style="fill:#5A453C;" d="M852.34,362.859c6.385,9.648,6.478,25.594,3.66,36.814c2.721-0.793,6.139-2.168,7.75-4.5&#10;&#9;&#9;&#9;&#9;&#9;c1.274-1.844,3.077-7.977,4.517-9.693c1.44-1.717,3.95-2.893,5.929-1.843c1.618,0.858,2.255,2.833,2.547,4.641&#10;&#9;&#9;&#9;&#9;&#9;c1.032,6.379-0.383,12.871-1.79,19.178c11.344-10.782,17.465-26.828,16.182-42.426c-12.258,0.476-24.63-2.457-35.369-8.385" transform="matrix(1, 0, 0, 1, -8.526512829121202e-14, 0)"/><path style="fill:#FFFFFF;" d="M806.334,322.423c-1.055,11.562-5.667,21.333-8.367,32.83&#10;&#9;&#9;&#9;&#9;&#9;c30.712,4.533,63.783,11.758,93.367,21.17c4.485-8.785,6.333-16.333,12.667-26C875.739,337.178,837.286,326.435,806.334,322.423&#10;&#9;&#9;&#9;&#9;&#9;z" transform="matrix(1, 0, 0, 1, -8.526512829121202e-14, 0)"/><g transform="matrix(1, 0, 0, 1, -8.526512829121202e-14, 0)">
					<path style="fill:#F9A783;" d="M887.428,334.468c16.54-41.644,35.371-82.825,62.171-118.735&#10;&#9;&#9;&#9;&#9;&#9;&#9;C920.964,250.444,899.644,291.16,887.428,334.468z"/>
				</g><path style="fill:#F9A783;" d="M856.782,322.058c12.813-40.201,25.627-80.402,38.44-120.603&#10;&#9;&#9;&#9;&#9;&#9;&#9;C875.687,239.085,862.626,280.064,856.782,322.058z" transform="matrix(1, 0, 0, 1, -8.526512829121202e-14, 0)"/><path style="fill:#F9A783;" d="M840.166,230.522c-9.871,24.392-15.61,50.451-16.9,76.733&#10;&#9;&#9;&#9;&#9;&#9;&#9;C833.379,282.99,837.497,256.673,840.166,230.522z" transform="matrix(1, 0, 0, 1, -8.526512829121202e-14, 0)"/><path style="fill:#FFFFFF;" d="M802,473.423l-2.611,21.372l86.547-9.01l-2.435-25.362&#10;&#9;&#9;&#9;&#9;C853.862,469.11,829.141,472.431,802,473.423z" transform="matrix(1, 0, 0, 1, -8.526512829121202e-14, 0)"/><path style="fill:#FFFFFF;" d="M868.086,530.171c4.476,1.971,9.365,3.263,13.999,4.99c13.402,4.995,26.617,10.504,39.534,16.65&#10;&#9;&#9;&#9;&#9;c24.966,11.88,48.853,26.173,70.44,43.494c22.858,18.341,42.932,40.048,59.083,64.52c0,0,50.482-32.59,50.485-32.591&#10;&#9;&#9;&#9;&#9;c1.501-0.969-13.589-22.725-15.045-24.628c-6.587-8.612-14.072-16.516-22.052-23.844c-18.871-17.329-40.47-31.559-62.738-44.112&#10;&#9;&#9;&#9;&#9;c-22.224-12.528-45.526-24.562-69.567-33.888c-12.165-4.719-24.59-8.785-37.245-11.976c-12.676-3.196-23.092-5.647-34.419,2.757&#10;&#9;&#9;&#9;&#9;c-9.851,7.309-10.445,20.829-3.437,30.356C860.044,525.87,863.883,528.32,868.086,530.171z" transform="matrix(1, 0, 0, 1, -8.526512829121202e-14, 0)"/><path d="M 737.412989 776.276978 A 5.824 5.824 0 0 1 731.588989 782.100977 A 5.824 5.824 0 0 1 725.764989 776.276978 A 5.824 5.824 0 0 1 731.588989 770.452978 A 5.824 5.824 0 0 1 737.412989 776.276978 Z" style="fill:#5A453C;" transform="matrix(1, 0, 0, 1, -8.526512829121202e-14, 0)"/><path d="M 747.605982 684.541992 A 5.824 5.824 0 0 1 741.781982 690.365992 A 5.824 5.824 0 0 1 735.957983 684.541992 A 5.824 5.824 0 0 1 741.781982 678.717992 A 5.824 5.824 0 0 1 747.605982 684.541992 Z" style="fill:#5A453C;" transform="matrix(1, 0, 0, 1, -8.526512829121202e-14, 0)"/><path d="M 781.824 578.247009 A 5.824 5.824 0 0 1 776 584.071009 A 5.824 5.824 0 0 1 770.176 578.247009 A 5.824 5.824 0 0 1 776 572.423009 A 5.824 5.824 0 0 1 781.824 578.247009 Z" style="fill:#5A453C;" transform="matrix(1, 0, 0, 1, -8.526512829121202e-14, 0)"/><g transform="matrix(1, 0, 0, 1, -8.526512829121202e-14, 0)">
				
					<path d="M 1015.294006 798.684021 H 1022.566006 V 839.153023 H 1015.294006 V 798.684021 Z" transform="matrix(-0.9262 -0.3771 0.3771 -0.9262 1653.8781 1961.5831)" style="fill:#FFFFFF;"/>
			</g><path style="fill:#5A453C;" d="M1023.404,798.893l6.309,2.568c2.49,1.014,5.33-0.183,6.343-2.673l47.351-116.313&#10;&#9;&#9;&#9;&#9;&#9;c1.014-2.49-0.183-5.33-2.673-6.343l-6.309-2.568c-2.49-1.014-5.33,0.183-6.343,2.673l-47.351,116.313&#10;&#9;&#9;&#9;&#9;&#9;C1019.718,795.039,1020.915,797.879,1023.404,798.893z" transform="matrix(1, 0, 0, 1, -8.526512829121202e-14, 0)"/><path style="fill:#FFFFFF;" d="M1017.448,834.017l-8.004-3.258c-13.315-5.421-28.504,0.979-33.924,14.294l-10.487,25.95&#10;&#9;&#9;&#9;&#9;&#9;c-0.746,1.833,0.135,3.924,1.968,4.67l49.585,20.186c1.833,0.746,3.924-0.135,4.67-1.968l10.487-25.95&#10;&#9;&#9;&#9;&#9;&#9;C1037.163,854.626,1030.763,839.438,1017.448,834.017z M981.643,871.099c-1.402-0.571-2.075-2.169-1.505-3.571l9.696-23.816&#10;&#9;&#9;&#9;&#9;&#9;c0.571-1.402,2.169-2.075,3.571-1.505s2.075,2.169,1.505,3.571l-9.696,23.816C984.643,870.996,983.044,871.67,981.643,871.099z&#10;&#9;&#9;&#9;&#9;&#9; M995.405,876.702c-1.401-0.571-2.075-2.169-1.505-3.571l9.696-23.816c0.571-1.402,2.169-2.075,3.571-1.505&#10;&#9;&#9;&#9;&#9;&#9;c1.401,0.571,2.075,2.169,1.505,3.571l-9.696,23.816C998.406,876.599,996.807,877.273,995.405,876.702z M1022.435,856.984&#10;&#9;&#9;&#9;&#9;&#9;l-9.696,23.816c-0.571,1.402-2.169,2.075-3.571,1.505c-1.402-0.571-2.075-2.169-1.505-3.571l9.696-23.816&#10;&#9;&#9;&#9;&#9;&#9;c0.571-1.402,2.169-2.075,3.571-1.505C1022.332,853.983,1023.005,855.582,1022.435,856.984z" transform="matrix(1, 0, 0, 1, -8.526512829121202e-14, 0)"/><g transform="matrix(1, 0, 0, 1, -8.526512829121202e-14, 0)">
				<g>
					<g>
						<path d="M 253 701.422974 H 601 V 710.422974 H 253 V 701.422974 Z" style="fill:#5A453C;"/>
					</g>
				</g>
				<g>
					<path d="M 284 706.922974 H 570 V 725.922974 H 284 V 706.922974 Z" style="fill:#5A453C;"/>
				</g>
			</g><path d="M 232 724.422974 H 636 V 750.422974 H 232 V 724.422974 Z" style="fill:#EF4625;" transform="matrix(1, 0, 0, 1, -8.526512829121202e-14, 0)"/><path d="M 257.498993 746.922974 H 610.501984 V 1226.896973 H 257.498993 V 746.922974 Z" style="fill:#EF4625;" transform="matrix(1, 0, 0, 1, -8.526512829121202e-14, 0)"/><path d="M 257.498993 746.922974 H 610.501984 V 768.422974 H 257.498993 V 746.922974 Z" style="fill:#5A453C;" transform="matrix(1, 0, 0, 1, -8.526512829121202e-14, 0)"/><path d="M 610.5020141601562 978.4229736328125 L 610.5020141601562 919.5029907226562 L 257.4989929199219 919.5029907226562 L 257.4989929199219 944.0009765625 L 334.6520080566406 978.4229736328125 Z" style="fill:#5A453C;" transform="matrix(1, 0, 0, 1, -8.526512829121202e-14, 0)"/><g transform="matrix(1, 0, 0, 1, -8.526512829121202e-14, 0)">
					<path style="fill:#FFFFFF;" d="M322.245,899.247h-39.554c-3.628,0-6.569-2.941-6.569-6.569v-67.922&#10;&#9;&#9;&#9;&#9;&#9;&#9;c0-3.915,3.173-7.088,7.088-7.088h38.516c3.915,0,7.088,3.173,7.088,7.088v67.922&#10;&#9;&#9;&#9;&#9;&#9;&#9;C328.814,896.306,325.873,899.247,322.245,899.247z"/>
					<path style="fill:#EF4625;" d="M322.245,900.247H282.69c-4.173,0-7.568-3.396-7.568-7.568v-67.922&#10;&#9;&#9;&#9;&#9;&#9;&#9;c0-4.46,3.628-8.088,8.088-8.088h38.516c4.459,0,8.088,3.628,8.088,8.088v67.922&#10;&#9;&#9;&#9;&#9;&#9;&#9;C329.813,896.852,326.418,900.247,322.245,900.247z M283.21,818.669c-3.357,0-6.088,2.731-6.088,6.088v67.922&#10;&#9;&#9;&#9;&#9;&#9;&#9;c0,3.07,2.498,5.568,5.568,5.568h39.554c3.071,0,5.569-2.498,5.569-5.568v-67.922c0-3.356-2.731-6.088-6.088-6.088H283.21z"/>
				</g><path d="M 282.80899 809.911987 H 322.126991 V 817.668987 H 282.80899 V 809.911987 Z" style="fill:#FFFFFF;" transform="matrix(1, 0, 0, 1, -8.526512829121202e-14, 0)"/><path style="fill:#EF4625;" d="M323.127,818.669h-41.318v-9.757h41.318V818.669z M283.809,816.669h37.318v-5.757h-37.318&#10;&#9;&#9;&#9;&#9;&#9;&#9;V816.669z" transform="matrix(1, 0, 0, 1, -8.526512829121202e-14, 0)"/><path style="fill:#FFFFFF;" d="M330.953,809.912h-56.971v-2.763c0-2.61,2.116-4.727,4.727-4.727h47.518&#10;&#9;&#9;&#9;&#9;&#9;&#9;c2.61,0,4.727,2.116,4.727,4.727V809.912z" transform="matrix(1, 0, 0, 1, -8.526512829121202e-14, 0)"/><path style="fill:#EF4625;" d="M331.953,810.912h-58.971v-3.763c0-3.157,2.569-5.727,5.727-5.727h47.518&#10;&#9;&#9;&#9;&#9;&#9;&#9;c3.158,0,5.727,2.569,5.727,5.727V810.912z M274.982,808.912h54.971v-1.763c0-2.055-1.672-3.727-3.727-3.727h-47.518&#10;&#9;&#9;&#9;&#9;&#9;&#9;c-2.055,0-3.727,1.672-3.727,3.727V808.912z" transform="matrix(1, 0, 0, 1, -8.526512829121202e-14, 0)"/><g transform="matrix(1, 0, 0, 1, -8.526512829121202e-14, 0)">
					<path style="fill:#FFFFFF;" d="M393.245,899.247h-39.554c-3.628,0-6.569-2.941-6.569-6.569v-67.922&#10;&#9;&#9;&#9;&#9;&#9;&#9;c0-3.915,3.173-7.088,7.088-7.088h38.516c3.915,0,7.088,3.173,7.088,7.088v67.922&#10;&#9;&#9;&#9;&#9;&#9;&#9;C399.814,896.306,396.873,899.247,393.245,899.247z"/>
					<path style="fill:#EF4625;" d="M393.245,900.247H353.69c-4.173,0-7.568-3.396-7.568-7.568v-67.922&#10;&#9;&#9;&#9;&#9;&#9;&#9;c0-4.46,3.628-8.088,8.088-8.088h38.516c4.459,0,8.088,3.628,8.088,8.088v67.922&#10;&#9;&#9;&#9;&#9;&#9;&#9;C400.813,896.852,397.418,900.247,393.245,900.247z M354.21,818.669c-3.357,0-6.088,2.731-6.088,6.088v67.922&#10;&#9;&#9;&#9;&#9;&#9;&#9;c0,3.07,2.498,5.568,5.568,5.568h39.554c3.071,0,5.569-2.498,5.569-5.568v-67.922c0-3.356-2.731-6.088-6.088-6.088H354.21z"/>
				</g><path d="M 353.80899 809.911987 H 393.126991 V 817.668987 H 353.80899 V 809.911987 Z" style="fill:#FFFFFF;" transform="matrix(1, 0, 0, 1, -8.526512829121202e-14, 0)"/><path style="fill:#EF4625;" d="M394.127,818.669h-41.318v-9.757h41.318V818.669z M354.809,816.669h37.318v-5.757h-37.318&#10;&#9;&#9;&#9;&#9;&#9;&#9;V816.669z" transform="matrix(1, 0, 0, 1, -8.526512829121202e-14, 0)"/><path style="fill:#FFFFFF;" d="M401.953,809.912h-56.971v-2.763c0-2.61,2.116-4.727,4.727-4.727h47.518&#10;&#9;&#9;&#9;&#9;&#9;&#9;c2.61,0,4.727,2.116,4.727,4.727V809.912z" transform="matrix(1, 0, 0, 1, -8.526512829121202e-14, 0)"/><path style="fill:#EF4625;" d="M402.953,810.912h-58.971v-3.763c0-3.157,2.569-5.727,5.727-5.727h47.518&#10;&#9;&#9;&#9;&#9;&#9;&#9;c3.158,0,5.727,2.569,5.727,5.727V810.912z M345.982,808.912h54.971v-1.763c0-2.055-1.672-3.727-3.727-3.727h-47.518&#10;&#9;&#9;&#9;&#9;&#9;&#9;c-2.055,0-3.727,1.672-3.727,3.727V808.912z" transform="matrix(1, 0, 0, 1, -8.526512829121202e-14, 0)"/><g transform="matrix(1, 0, 0, 1, -8.526512829121202e-14, 0)">
					<path style="fill:#FFFFFF;" d="M457.303,899.247h-25.67c-2.354,0-4.263-1.909-4.263-4.263v-64.528c0-2.54,2.059-4.6,4.6-4.6&#10;&#9;&#9;&#9;&#9;&#9;&#9;h24.996c2.54,0,4.6,2.059,4.6,4.6v64.528C461.566,897.339,459.657,899.247,457.303,899.247z"/>
					<path style="fill:#EF4625;" d="M457.303,900.247h-25.67c-2.902,0-5.263-2.36-5.263-5.263v-64.528c0-3.088,2.512-5.6,5.6-5.6&#10;&#9;&#9;&#9;&#9;&#9;&#9;h24.996c3.087,0,5.6,2.512,5.6,5.6v64.528C462.565,897.887,460.205,900.247,457.303,900.247z M431.97,826.856&#10;&#9;&#9;&#9;&#9;&#9;&#9;c-1.985,0-3.6,1.615-3.6,3.6v64.528c0,1.799,1.464,3.263,3.263,3.263h25.67c1.799,0,3.263-1.464,3.263-3.263v-64.528&#10;&#9;&#9;&#9;&#9;&#9;&#9;c0-1.984-1.615-3.6-3.6-3.6H431.97z"/>
				</g><path d="M 431.709015 820.822021 H 457.226015 V 825.856021 H 431.709015 V 820.822021 Z" style="fill:#FFFFFF;" transform="matrix(1, 0, 0, 1, -8.526512829121202e-14, 0)"/><path style="fill:#EF4625;" d="M458.226,826.856h-27.517v-7.034h27.517V826.856z M432.709,824.856h23.517v-3.034h-23.517&#10;&#9;&#9;&#9;&#9;&#9;&#9;V824.856z" transform="matrix(1, 0, 0, 1, -8.526512829121202e-14, 0)"/><path style="fill:#FFFFFF;" d="M462.954,820.822h-36.973v-1.793c0-1.694,1.373-3.067,3.067-3.067h30.838&#10;&#9;&#9;&#9;&#9;&#9;&#9;c1.694,0,3.067,1.373,3.067,3.067V820.822z" transform="matrix(1, 0, 0, 1, -8.526512829121202e-14, 0)"/><path style="fill:#EF4625;" d="M463.954,821.822h-38.973v-2.793c0-2.243,1.825-4.067,4.067-4.067h30.838&#10;&#9;&#9;&#9;&#9;&#9;&#9;c2.243,0,4.067,1.824,4.067,4.067V821.822z M426.981,819.822h34.973v-0.793c0-1.14-0.927-2.067-2.067-2.067h-30.838&#10;&#9;&#9;&#9;&#9;&#9;&#9;c-1.14,0-2.067,0.928-2.067,2.067V819.822z" transform="matrix(1, 0, 0, 1, -8.526512829121202e-14, 0)"/><g transform="matrix(1, 0, 0, 1, -8.526512829121202e-14, 0)">
					<path style="fill:#FFFFFF;" d="M504.303,899.247h-25.67c-2.354,0-4.263-1.909-4.263-4.263v-64.528c0-2.54,2.059-4.6,4.6-4.6&#10;&#9;&#9;&#9;&#9;&#9;&#9;h24.996c2.54,0,4.6,2.059,4.6,4.6v64.528C508.566,897.339,506.657,899.247,504.303,899.247z"/>
					<path style="fill:#EF4625;" d="M504.303,900.247h-25.67c-2.902,0-5.263-2.36-5.263-5.263v-64.528c0-3.088,2.512-5.6,5.6-5.6&#10;&#9;&#9;&#9;&#9;&#9;&#9;h24.996c3.087,0,5.6,2.512,5.6,5.6v64.528C509.565,897.887,507.205,900.247,504.303,900.247z M478.97,826.856&#10;&#9;&#9;&#9;&#9;&#9;&#9;c-1.985,0-3.6,1.615-3.6,3.6v64.528c0,1.799,1.464,3.263,3.263,3.263h25.67c1.799,0,3.263-1.464,3.263-3.263v-64.528&#10;&#9;&#9;&#9;&#9;&#9;&#9;c0-1.984-1.615-3.6-3.6-3.6H478.97z"/>
				</g><path d="M 478.709015 820.822021 H 504.226015 V 825.856021 H 478.709015 V 820.822021 Z" style="fill:#FFFFFF;" transform="matrix(1, 0, 0, 1, -8.526512829121202e-14, 0)"/><path style="fill:#EF4625;" d="M505.226,826.856h-27.517v-7.034h27.517V826.856z M479.709,824.856h23.517v-3.034h-23.517&#10;&#9;&#9;&#9;&#9;&#9;&#9;V824.856z" transform="matrix(1, 0, 0, 1, -8.526512829121202e-14, 0)"/><path style="fill:#FFFFFF;" d="M509.954,820.822h-36.973v-1.793c0-1.694,1.373-3.067,3.067-3.067h30.838&#10;&#9;&#9;&#9;&#9;&#9;&#9;c1.694,0,3.067,1.373,3.067,3.067V820.822z" transform="matrix(1, 0, 0, 1, -8.526512829121202e-14, 0)"/><path style="fill:#EF4625;" d="M510.954,821.822h-38.973v-2.793c0-2.243,1.825-4.067,4.067-4.067h30.838&#10;&#9;&#9;&#9;&#9;&#9;&#9;c2.243,0,4.067,1.824,4.067,4.067V821.822z M473.981,819.822h34.973v-0.793c0-1.14-0.927-2.067-2.067-2.067h-30.838&#10;&#9;&#9;&#9;&#9;&#9;&#9;c-1.14,0-2.067,0.928-2.067,2.067V819.822z" transform="matrix(1, 0, 0, 1, -8.526512829121202e-14, 0)"/><g transform="matrix(1, 0, 0, 1, -8.526512829121202e-14, 0)">
					<path style="fill:#FFFFFF;" d="M551.303,899.247h-25.67c-2.354,0-4.263-1.909-4.263-4.263v-64.528c0-2.54,2.06-4.6,4.6-4.6&#10;&#9;&#9;&#9;&#9;&#9;&#9;h24.996c2.54,0,4.6,2.059,4.6,4.6v64.528C555.566,897.339,553.657,899.247,551.303,899.247z"/>
					<path style="fill:#EF4625;" d="M551.303,900.247h-25.67c-2.902,0-5.263-2.36-5.263-5.263v-64.528c0-3.088,2.512-5.6,5.6-5.6&#10;&#9;&#9;&#9;&#9;&#9;&#9;h24.996c3.087,0,5.6,2.512,5.6,5.6v64.528C556.565,897.887,554.205,900.247,551.303,900.247z M525.97,826.856&#10;&#9;&#9;&#9;&#9;&#9;&#9;c-1.985,0-3.6,1.615-3.6,3.6v64.528c0,1.799,1.464,3.263,3.263,3.263h25.67c1.799,0,3.263-1.464,3.263-3.263v-64.528&#10;&#9;&#9;&#9;&#9;&#9;&#9;c0-1.984-1.615-3.6-3.6-3.6H525.97z"/>
				</g><path d="M 525.708984 820.822021 H 551.225985 V 825.856021 H 525.708984 V 820.822021 Z" style="fill:#FFFFFF;" transform="matrix(1, 0, 0, 1, -8.526512829121202e-14, 0)"/><path style="fill:#EF4625;" d="M552.226,826.856h-27.517v-7.034h27.517V826.856z M526.709,824.856h23.517v-3.034h-23.517&#10;&#9;&#9;&#9;&#9;&#9;&#9;V824.856z" transform="matrix(1, 0, 0, 1, -8.526512829121202e-14, 0)"/><path style="fill:#FFFFFF;" d="M556.954,820.822h-36.973v-1.793c0-1.694,1.373-3.067,3.067-3.067h30.838&#10;&#9;&#9;&#9;&#9;&#9;&#9;c1.694,0,3.067,1.373,3.067,3.067V820.822z" transform="matrix(1, 0, 0, 1, -8.526512829121202e-14, 0)"/><path style="fill:#EF4625;" d="M557.954,821.822h-38.973v-2.793c0-2.243,1.825-4.067,4.067-4.067h30.838&#10;&#9;&#9;&#9;&#9;&#9;&#9;c2.243,0,4.067,1.824,4.067,4.067V821.822z M520.981,819.822h34.973v-0.793c0-1.14-0.927-2.067-2.067-2.067h-30.838&#10;&#9;&#9;&#9;&#9;&#9;&#9;c-1.14,0-2.067,0.928-2.067,2.067V819.822z" transform="matrix(1, 0, 0, 1, -8.526512829121202e-14, 0)"/><path d="M 232 899.914001 H 636 V 925.914001 H 232 V 899.914001 Z" style="fill:#F9A783;" transform="matrix(1, 0, 0, 1, -8.526512829121202e-14, 0)"/><g transform="matrix(1, 0, 0, 1, -8.526512829121202e-14, 0)">
					<path style="fill:#FCB22F;" d="M489.5,687.923c0,4.142-3.358,7.5-7.5,7.5c-4.142,0-7.5-3.358-7.5-7.5&#10;&#9;&#9;&#9;&#9;&#9;&#9;c0-4.142,7.5-27.513,7.5-27.513S489.5,683.781,489.5,687.923z"/>
				</g><path style="fill:#FCB22F;" d="M469.5,687.923c0,4.142-3.358,7.5-7.5,7.5c-4.142,0-7.5-3.358-7.5-7.5&#10;&#9;&#9;&#9;&#9;&#9;&#9;c0-4.142,7.5-27.513,7.5-27.513S469.5,683.781,469.5,687.923z" transform="matrix(1, 0, 0, 1, -8.526512829121202e-14, 0)"/><path style="fill:#FCB22F;" d="M449.5,687.923c0,4.142-3.358,7.5-7.5,7.5c-4.142,0-7.5-3.358-7.5-7.5&#10;&#9;&#9;&#9;&#9;&#9;&#9;c0-4.142,7.5-27.513,7.5-27.513S449.5,683.781,449.5,687.923z" transform="matrix(1, 0, 0, 1, -8.526512829121202e-14, 0)"/><path style="fill:#FCB22F;" d="M429.5,687.923c0,4.142-3.358,7.5-7.5,7.5c-4.142,0-7.5-3.358-7.5-7.5&#10;&#9;&#9;&#9;&#9;&#9;&#9;c0-4.142,7.5-27.513,7.5-27.513S429.5,683.781,429.5,687.923z" transform="matrix(1, 0, 0, 1, -8.526512829121202e-14, 0)"/><path style="fill:#FCB22F;" d="M409.5,687.923c0,4.142-3.358,7.5-7.5,7.5c-4.142,0-7.5-3.358-7.5-7.5&#10;&#9;&#9;&#9;&#9;&#9;&#9;c0-4.142,7.5-27.513,7.5-27.513S409.5,683.781,409.5,687.923z" transform="matrix(1, 0, 0, 1, -8.526512829121202e-14, 0)"/><path style="fill:#FCB22F;" d="M389.5,687.923c0,4.142-3.358,7.5-7.5,7.5c-4.142,0-7.5-3.358-7.5-7.5&#10;&#9;&#9;&#9;&#9;&#9;&#9;c0-4.142,7.5-27.513,7.5-27.513S389.5,683.781,389.5,687.923z" transform="matrix(1, 0, 0, 1, -8.526512829121202e-14, 0)"/><path style="fill:#FCB22F;" d="M369.5,687.923c0,4.142-3.358,7.5-7.5,7.5c-4.142,0-7.5-3.358-7.5-7.5&#10;&#9;&#9;&#9;&#9;&#9;&#9;c0-4.142,7.5-27.513,7.5-27.513S369.5,683.781,369.5,687.923z" transform="matrix(1, 0, 0, 1, -8.526512829121202e-14, 0)"/><path style="fill:#F26D7D;" d="M545.753,445.181c-6.999-2.5-14.514,1.046-21.528,3.501c-9.319,3.262-19.291,4.648-29.146,4.051&#10;&#9;&#9;&#9;&#9;c-2.291-0.139-4.796-0.328-6.673,0.993c-3.556,2.504-1.821,8.664,2.027,10.69s8.507,1.238,12.779,0.424s8.957-1.542,12.755,0.578&#10;&#9;&#9;&#9;&#9;c5.596,3.124,6.503,10.58,8.991,16.486c4.51,10.704,16.535,17.705,28.07,16.342c4.48-0.529,9.406-2.838,10.414-7.235&#10;&#9;&#9;&#9;&#9;c0.449-1.958,0.031-3.998-0.388-5.962c-1.245-5.847-2.489-11.694-3.734-17.541C557.421,458.587,554.344,448.25,545.753,445.181z" transform="matrix(1, 0, 0, 1, -8.526512829121202e-14, 0)"/><path style="fill:#E4B997;" d="M716.667,817.756c-8-58.667-0.497-97.083,9.333-144.667s29.825-95.495,60.229-133.395&#10;&#9;&#9;&#9;&#9;C733.354,623.318,705.463,723.226,720,821.09" transform="matrix(1, 0, 0, 1, -8.526512829121202e-14, 0)"/><path style="fill:#E4B997;" d="M735.721,883.533c10.974,93.139,14.095,187.203,9.318,280.865&#10;&#9;&#9;&#9;&#9;c5.961-44.975,5.918-79.866,7.223-119.958C754.02,990.486,741.156,937.243,735.721,883.533z" transform="matrix(1, 0, 0, 1, -8.526512829121202e-14, 0)"/><path style="fill:#F26D7D;" d="M870.864,381.153c0.804-2.525,4.12-3.599,6.583-2.622c2.464,0.976,4.065,3.441,4.802,5.987&#10;&#9;&#9;&#9;&#9;c1.039,3.594,0.642,7.507-0.65,11.018c-1.291,3.512-3.434,6.657-5.864,9.502c-1.355,1.587-2.858,3.131-4.764,3.981&#10;&#9;&#9;&#9;&#9;c-1.907,0.85-4.308,0.871-5.936-0.435c-1.628-1.306-2.003-4.102-0.432-5.478" transform="matrix(1, 0, 0, 1, -8.526512829121202e-14, 0)"/><path style="fill:#D4546B;" d="M409.38,322.953c2.437-2.31,3.965-5.568,3.965-9.191c0-6.999-5.674-12.672-12.672-12.672&#10;&#9;&#9;&#9;&#9;c-4.559,0-8.544,2.415-10.776,6.028c-0.185-0.018-0.373-0.028-0.563-0.028c-3.13,0-5.667,2.537-5.667,5.667&#10;&#9;&#9;&#9;&#9;c0,2.979,2.301,5.417,5.221,5.644c1.852,4.702,6.425,8.034,11.784,8.034c0.38,0,0.753-0.024,1.124-0.057&#10;&#9;&#9;&#9;&#9;c-0.179,0.55-0.279,1.136-0.279,1.746c0,3.111,2.522,5.632,5.632,5.632s5.632-2.522,5.632-5.632&#10;&#9;&#9;&#9;&#9;C412.782,325.806,411.381,323.817,409.38,322.953z" transform="matrix(1, 0, 0, 1, -8.526512829121202e-14, 0)"/><path style="fill:#D4546B;" d="M318.421,294.595c-2.63,0.54-5.044,2.108-6.574,4.568c-2.955,4.754-1.497,11.003,3.256,13.958&#10;&#9;&#9;&#9;&#9;c4.754,2.955,11.003,1.497,13.958-3.256c2.955-4.754,1.497-11.003-3.256-13.958c-0.258-0.16-0.522-0.302-0.788-0.436&#10;&#9;&#9;&#9;&#9;c0.354-0.298,0.67-0.654,0.927-1.068c1.313-2.113,0.665-4.89-1.447-6.203c-2.113-1.313-4.89-0.665-6.203,1.447&#10;&#9;&#9;&#9;&#9;C317.316,291.22,317.427,293.163,318.421,294.595z" transform="matrix(1, 0, 0, 1, -8.526512829121202e-14, 0)"/><path d="M 313.333 371.756012 A 3.333 3.333 0 0 1 310 375.089012 A 3.333 3.333 0 0 1 306.667 371.756012 A 3.333 3.333 0 0 1 310 368.423012 A 3.333 3.333 0 0 1 313.333 371.756012 Z" style="fill:#D4546B;" transform="matrix(1, 0, 0, 1, -8.526512829121202e-14, 0)"/><path d="M 300.666992 324.089996 A 7 7 0 0 1 293.666992 331.089996 A 7 7 0 0 1 286.666992 324.089996 A 7 7 0 0 1 293.666992 317.089996 A 7 7 0 0 1 300.666992 324.089996 Z" style="fill:#E4B997;" transform="matrix(1, 0, 0, 1, -8.526512829121202e-14, 0)"/><path d="M 390 390.423004 A 10 10 0 0 1 380 400.423004 A 10 10 0 0 1 370 390.423004 A 10 10 0 0 1 380 380.423004 A 10 10 0 0 1 390 390.423004 Z" style="fill:#E4B997;" transform="matrix(1, 0, 0, 1, -8.526512829121202e-14, 0)"/><path d="M 380.667 278.423004 A 8.667 8.667 0 0 1 372 287.090004 A 8.667 8.667 0 0 1 363.333 278.423004 A 8.667 8.667 0 0 1 372 269.756004 A 8.667 8.667 0 0 1 380.667 278.423004 Z" style="fill:#E4B997;" transform="matrix(1, 0, 0, 1, -8.526512829121202e-14, 0)"/><g transform="matrix(1, 0, 0, 1, -8.526512829121202e-14, 0)">
				<path style="fill:#4CBA71;" d="M337,248.09c0-6.259-5.074-11.333-11.333-11.333c-5.389,0-9.89,3.765-11.04,8.805&#10;&#9;&#9;&#9;&#9;&#9;c-1.335-0.512-2.778-0.805-4.293-0.805c-6.627,0-12,5.373-12,12c0,6.627,5.373,12,12,12c1.777,0,3.458-0.397,4.976-1.09&#10;&#9;&#9;&#9;&#9;&#9;c1.401,2.631,4.169,4.423,7.357,4.423c4.602,0,8.333-3.731,8.333-8.333c0-1.86-0.617-3.572-1.647-4.959&#10;&#9;&#9;&#9;&#9;&#9;C333.8,257.267,337,253.057,337,248.09z"/>
			</g><path d="M 350.667 335.423004 A 5.667 5.667 0 0 1 345 341.090004 A 5.667 5.667 0 0 1 339.333 335.423004 A 5.667 5.667 0 0 1 345 329.756004 A 5.667 5.667 0 0 1 350.667 335.423004 Z" style="fill:#4CBA71;" transform="matrix(1, 0, 0, 1, -8.526512829121202e-14, 0)"/><path style="fill:#4CBA71;" d="M433.334,358.756c0-3.13-2.537-5.667-5.667-5.667c-0.724,0-1.414,0.141-2.051,0.389&#10;&#9;&#9;&#9;&#9;&#9;c-1.362-1.075-3.078-1.722-4.949-1.722c-4.418,0-8,3.582-8,8c0,1.543,0.444,2.979,1.201,4.201&#10;&#9;&#9;&#9;&#9;&#9;c-0.341,0.868-0.535,1.81-0.535,2.799c0,4.234,3.432,7.667,7.667,7.667s7.667-3.432,7.667-7.667&#10;&#9;&#9;&#9;&#9;&#9;c0-0.827-0.135-1.623-0.377-2.369C431.126,364.077,433.334,361.675,433.334,358.756z" transform="matrix(1, 0, 0, 1, -8.526512829121202e-14, 0)"/><path style="fill:#4CBA71;" d="M390.211,339.512c-1.849-2.071-3.698-4.142-5.546-6.213c-7.045,9.116-16.448,16.395-27.039,20.931&#10;&#9;&#9;&#9;&#9;c1.374,2.866,3.343,5.444,5.746,7.524C371.641,353.57,380.634,346.118,390.211,339.512z" transform="matrix(1, 0, 0, 1, -8.526512829121202e-14, 0)"/><path style="fill:#4CBA71;" d="M314.894,362.842c0.809-3.18,2.868-6.025,5.636-7.788c-5.747-3.658-10.831-8.356-14.932-13.796&#10;&#9;&#9;&#9;&#9;c-2.276,1.912-4.552,3.823-6.828,5.735C305.275,350.932,310.844,356.406,314.894,362.842z" transform="matrix(1, 0, 0, 1, -8.526512829121202e-14, 0)"/><path style="fill:#4CBA71;" d="M403.626,382.344c0.179,2.859,0.357,5.719,0.536,8.578c7.618,1.523,15.344,2.512,23.1,2.958&#10;&#9;&#9;&#9;&#9;c-0.055-2.206,0.368-4.423,1.231-6.454C420.797,387.868,410.895,384.908,403.626,382.344z" transform="matrix(1, 0, 0, 1, -8.526512829121202e-14, 0)"/><path style="fill:#FFFFFF;" d="M390,581.423c-0.552,0-1-0.448-1-1v-161c0-0.552,0.448-1,1-1s1,0.448,1,1v161&#10;&#9;&#9;&#9;&#9;C391,580.975,390.553,581.423,390,581.423z" transform="matrix(1, 0, 0, 1, -8.526512829121202e-14, 0)"/><path style="fill:#FFFFFF;" d="M377,496.423c-0.552,0-1-0.448-1-1v-84c0-0.552,0.448-1,1-1s1,0.448,1,1v84&#10;&#9;&#9;&#9;&#9;C378,495.975,377.553,496.423,377,496.423z" transform="matrix(1, 0, 0, 1, -8.526512829121202e-14, 0)"/><path style="fill:#FFFFFF;" d="M295,526.423c-0.552,0-1-0.448-1-1v-152c0-0.552,0.448-1,1-1s1,0.448,1,1v152&#10;&#9;&#9;&#9;&#9;C296,525.975,295.553,526.423,295,526.423z" transform="matrix(1, 0, 0, 1, -8.526512829121202e-14, 0)"/><path style="fill:#FFFFFF;" d="M444.058,365.434c-0.044,0-0.089-0.003-0.133-0.009c-0.547-0.073-0.932-0.576-0.859-1.123&#10;&#9;&#9;&#9;&#9;c7.916-59.454,8.42-106.978,1.587-149.562c-4.215-26.271-13.745-42.209-28.324-47.374c-16.359-5.794-34.317,4.458-43.602,17.579&#10;&#9;&#9;&#9;&#9;c-10.024,14.166-13.393,32.263-16.366,48.229c-0.101,0.543-0.621,0.904-1.166,0.8c-0.543-0.101-0.901-0.623-0.8-1.166&#10;&#9;&#9;&#9;&#9;c3.01-16.169,6.421-34.495,16.699-49.019c9.72-13.736,28.607-24.436,45.903-18.309c15.322,5.427,25.291,21.894,29.631,48.942&#10;&#9;&#9;&#9;&#9;c6.864,42.781,6.362,90.489-1.58,150.142C444.981,365.068,444.551,365.434,444.058,365.434z" transform="matrix(1, 0, 0, 1, -8.526512829121202e-14, 0)"/><path style="fill:#FFFFFF;" d="M434.995,358.418c-0.037,0-0.075-0.002-0.112-0.006c-0.549-0.061-0.944-0.556-0.883-1.105&#10;&#9;&#9;&#9;&#9;c5.233-46.821,5.754-94.354,1.548-141.278c-0.288-3.205-0.645-7.192-2.407-10.375c-1.467-2.652-4.605-5.268-8.03-4.749&#10;&#9;&#9;&#9;&#9;c-3.958,0.602-6.376,4.926-8.041,8.625c-9.55,21.223-15.428,43.738-17.471,66.92c-0.048,0.55-0.531,0.958-1.084,0.908&#10;&#9;&#9;&#9;&#9;c-0.55-0.048-0.957-0.534-0.908-1.084c2.063-23.406,7.998-46.138,17.639-67.565c1.873-4.162,4.653-9.035,9.564-9.783&#10;&#9;&#9;&#9;&#9;c4.368-0.664,8.29,2.519,10.081,5.758c1.966,3.552,2.345,7.773,2.649,11.165c4.218,47.057,3.695,94.725-1.553,141.679&#10;&#9;&#9;&#9;&#9;C435.93,358.04,435.498,358.418,434.995,358.418z" transform="matrix(1, 0, 0, 1, -8.526512829121202e-14, 0)"/>
</svg>